# xmcd
#
# Track frame offsets:
#	150
#	13006
#	32899
#	57053
#	75422
#	91598
#	110598
#	130170
#	148140
#	162075
#	183052
#	200947
#	220916
#	233955
#	247094
#
# Disc length: 3615 seconds
#
# Revision: 1
# Processed by: cddbd v1.5.2PL0 Copyright (c) Steve Scherf et al.
# Submitted via: audiograbber 1.83.01
#
DISCID=cb0e1d0f
DTITLE=George Strait, Alan Jackson and Jimmy Buffett - Live At Texas Stadium
DYEAR=2007
DGENRE=Country
TTITLE0=Honk If You Honky Tonk
TTITLE1=Murder On Music Row
TTITLE2=Milk Cow Blues
TTITLE3=Cowboys Like Us
TTITLE4=All My Ex's Live In Texas
TTITLE5=Hey Good Lookin'
TTITLE6=Sea Of Heartbreak
TTITLE7=North East Texas Woman
TTITLE8=Boats To Build
TTITLE9=Margaritaville
TTITLE10=Five O'Clock Somewhere
TTITLE11=Designated Drinker
TTITLE12=Texas Women
TTITLE13=Seven Bridges Road
TTITLE14=Where I Come From
EXTD=
EXTT0=
EXTT1=
EXTT2=
EXTT3=
EXTT4=
EXTT5=
EXTT6=
EXTT7=
EXTT8=
EXTT9=
EXTT10=
EXTT11=
EXTT12=
EXTT13=
EXTT14=
PLAYORDER=
